<svg version="1.1" id="Layer_1" xmlns="http://www.w3.org/2000/svg" xmlns:xlink="http://www.w3.org/1999/xlink" x="0px" y="0px"
	 width="100%" viewBox="0 0 1024 1024" enable-background="new 0 0 1024 1024" xml:space="preserve">
<path fill="#000000" opacity="1.000000" stroke="none" 
	d="
M590.327759,602.435303 
	C582.288086,604.339172 582.195923,604.339661 582.235779,612.028320 
	C582.311035,626.511353 581.783264,641.001160 583.186218,655.470886 
	C583.516357,658.875610 584.666382,660.592407 587.886841,661.410278 
	C592.381653,662.551819 596.763550,664.152222 601.274780,665.211243 
	C606.921265,666.536804 611.348755,664.641479 614.478821,659.605591 
	C617.014587,655.525818 619.410767,651.391235 623.805115,648.738831 
	C636.613586,641.007324 660.150635,643.038452 672.531921,652.762695 
	C682.181885,660.341736 689.600830,669.483826 694.641418,680.666016 
	C697.730713,687.519348 701.340637,694.090454 706.933777,699.338074 
	C708.442322,700.753418 709.974548,702.181274 712.184570,701.512085 
	C729.792053,696.180542 742.747986,705.786072 755.394226,715.393921 
	C767.877747,724.878235 774.248352,738.746582 778.327942,753.243225 
	C781.149963,763.270935 785.041687,772.650391 789.355347,782.005249 
	C792.707214,789.274109 795.401001,796.738464 795.325562,805.000549 
	C795.134338,825.938477 779.038452,837.372864 759.032654,831.453308 
	C747.398560,828.010986 736.437622,822.817200 724.562378,819.942627 
	C707.765503,815.876587 691.514160,816.254395 674.791077,820.476807 
	C646.747681,827.557495 618.499207,833.846252 590.257324,840.109253 
	C580.541321,842.263794 575.029846,848.299561 569.529358,856.172729 
	C564.549927,863.300049 565.664062,870.049011 565.873291,877.401794 
	C566.224121,889.727295 566.063843,902.066956 566.380066,914.393982 
	C566.548889,920.973816 565.742065,927.715088 568.975647,933.958679 
	C570.156982,936.239624 566.823486,937.387024 567.059204,939.791077 
	C567.382935,943.091187 567.201721,946.449890 567.098022,949.779114 
	C567.043518,951.528870 566.532654,953.252136 564.264648,953.071960 
	C562.286682,952.914795 562.101196,951.255493 562.045837,949.723877 
	C561.955505,947.226685 562.016724,944.723389 561.903381,942.227722 
	C561.830261,940.617859 562.066101,938.558594 559.662781,938.474487 
	C556.955811,938.379700 557.093933,940.573425 557.023315,942.387207 
	C556.945618,944.383606 557.107117,946.392151 556.974548,948.382751 
	C556.847778,950.286072 557.241272,952.940857 554.454285,953.023010 
	C551.590637,953.107300 551.798645,950.471680 551.836182,948.548096 
	C551.955811,942.402527 551.442688,936.281372 551.555420,930.119690 
	C551.930115,909.626221 551.819580,889.123840 551.890198,868.624878 
	C551.899902,865.813782 551.371399,863.049255 551.415833,860.203430 
	C551.459778,857.389587 549.673462,855.565308 546.667542,854.588257 
	C539.970093,852.411194 533.454285,853.867554 526.949524,855.074280 
	C522.392029,855.919800 518.016724,857.600098 513.220703,857.120544 
	C511.652893,856.963806 509.928497,857.580017 508.385193,858.142883 
	C505.546082,859.178345 504.239197,861.750671 504.111816,864.393250 
	C503.993195,866.855103 506.769958,866.921814 508.528839,867.707825 
	C509.958588,868.346802 511.873993,868.229919 512.587158,870.244507 
	C510.693054,871.688110 508.771027,870.869080 506.911407,870.413269 
	C503.513824,869.580200 500.130005,868.686707 496.756989,867.758423 
	C488.173492,865.395996 488.250275,865.608032 488.428619,874.302795 
	C488.735535,889.264893 488.572937,904.237610 488.525726,919.205566 
	C488.509460,924.366394 488.578400,929.498413 488.915009,934.664368 
	C489.265930,940.049683 488.473938,945.514038 488.103485,950.938477 
	C488.015869,952.221985 487.262787,953.143005 485.807007,953.011963 
	C484.377106,952.883301 483.867493,951.853821 483.802277,950.587097 
	C483.716644,948.924133 483.928162,947.218384 483.632721,945.600220 
	C483.181915,943.130981 485.348938,938.784912 481.134521,938.747681 
	C476.422089,938.706177 478.974823,943.304810 478.371613,945.843811 
	C478.033356,947.267639 478.325562,948.832092 478.240692,950.327881 
	C478.161316,951.727478 477.828156,953.079529 476.020538,953.019104 
	C474.302307,952.961609 473.911774,951.668518 473.770874,950.257019 
	C473.721313,949.760620 473.669495,949.252136 473.720886,948.759888 
	C474.548218,940.839600 471.213531,933.360596 471.299103,925.497437 
	C471.350494,920.774719 470.435303,916.345093 473.147369,911.572754 
	C475.090332,908.153748 474.415161,903.161560 474.609497,898.857788 
	C474.811523,894.383545 474.654510,889.893066 474.270935,885.304504 
	C474.025391,887.688843 473.779846,890.073242 473.534302,892.457581 
	C473.174805,892.475708 472.815277,892.493896 472.455780,892.512024 
	C472.263641,889.525085 471.863861,886.534363 471.918945,883.552002 
	C472.074310,875.140869 470.897797,866.644897 475.576294,858.711182 
	C477.985413,854.625916 476.110687,850.695557 472.060638,848.003540 
	C464.893524,843.239685 456.328552,842.832336 448.433136,840.354919 
	C444.647217,839.166992 440.783936,838.108643 436.720306,837.976990 
	C427.892456,837.691101 423.185333,843.622559 425.599457,852.315063 
	C423.601929,853.822998 421.500336,852.890564 419.453308,852.490417 
	C398.019714,848.300110 377.286682,841.304626 355.976654,836.601318 
	C352.209167,835.769897 348.030731,836.018616 344.729584,833.428528 
	C349.042542,824.706848 348.684692,822.740723 342.952850,817.033142 
	C338.609741,812.708374 333.880981,814.778809 329.397644,816.018066 
	C325.748230,817.026733 322.348846,818.985657 318.902496,820.655151 
	C317.897614,821.142029 316.478882,821.969177 316.325287,822.831848 
	C314.956635,830.518005 310.151733,837.703735 312.963928,846.031616 
	C313.734711,848.314087 315.296539,849.653931 317.180298,850.727783 
	C330.307800,858.210999 341.458862,868.651489 354.887939,875.723755 
	C360.165741,878.503235 364.741791,882.420654 369.258453,886.446594 
	C376.809265,893.177246 385.742310,896.450806 396.020203,893.837830 
	C400.406036,892.722778 403.285583,894.304871 405.790405,897.859253 
	C407.491089,900.272644 409.276550,902.717163 411.748169,904.544861 
	C414.948242,906.911133 418.082245,908.278076 422.363861,907.330444 
	C428.416748,905.990723 430.650848,907.551697 433.573700,913.005676 
	C437.128845,919.639648 438.590637,928.166077 448.592896,928.876953 
	C447.012268,931.772583 445.326447,930.760071 443.816772,930.419495 
	C416.912109,924.348877 392.021790,913.267273 368.181854,899.693909 
	C345.058044,886.528198 323.807343,870.938416 305.042480,851.875427 
	C298.044159,844.765808 290.582001,838.106812 284.318176,830.305908 
	C282.504303,828.046936 280.768921,828.526611 278.616913,829.341919 
	C271.148407,832.171448 263.457336,833.274353 255.586563,831.503174 
	C243.898254,828.872864 237.535126,819.631836 238.044952,807.667969 
	C238.631302,793.908875 242.468521,781.152771 248.422958,768.909424 
	C250.257248,765.137939 252.037445,761.392151 251.776031,757.043823 
	C251.756409,756.717346 251.844833,756.381958 251.901367,756.053833 
	C256.341675,730.282532 284.276764,702.568604 309.898865,698.954956 
	C316.297516,698.052612 322.906677,698.064453 329.323944,699.294067 
	C333.113892,700.020264 335.860413,699.076477 338.889008,696.690430 
	C350.709473,687.378174 358.258148,674.840271 365.846741,662.267395 
	C368.778076,657.410706 371.973724,652.689026 376.554871,649.186951 
	C390.236847,638.727783 411.731476,641.057373 422.954041,654.082336 
	C429.493774,661.672424 432.671478,662.828430 439.962036,656.649780 
	C440.088348,656.542725 440.229645,656.398621 440.377686,656.379883 
	C450.173218,655.135132 448.582306,647.671387 448.699158,641.147766 
	C448.890167,630.484985 448.337738,619.891602 446.984528,609.282471 
	C446.436493,604.986145 444.249420,604.057800 440.991302,603.504028 
	C432.880035,602.125427 425.021362,600.040955 418.202362,595.188904 
	C415.376465,593.178223 412.724854,590.922485 410.028503,588.805298 
	C406.708191,590.036804 407.285278,593.779663 404.845306,595.807129 
	C402.548096,594.965027 401.507202,592.708923 400.566559,590.798218 
	C398.634033,586.872681 396.185974,585.711914 391.780426,586.835388 
	C386.235077,588.249512 380.001770,584.831299 377.298523,579.781921 
	C378.086395,578.203918 380.197723,579.179871 381.302429,577.525391 
	C380.312042,571.605469 379.269531,565.410278 378.241852,559.212585 
	C377.858276,556.899231 376.385651,555.973267 374.189056,555.480713 
	C359.027435,552.081360 348.883118,539.579590 348.821808,523.492737 
	C348.802887,518.523682 347.248993,515.474915 343.029938,512.994263 
	C338.729675,510.465820 334.977203,507.075684 331.923492,503.033783 
	C331.009399,501.823914 330.029388,500.789307 328.505554,500.257446 
	C318.052856,496.609192 311.419189,488.865753 306.931824,479.216614 
	C305.141022,475.365906 303.275970,474.490631 298.976532,475.036224 
	C283.182831,477.040558 267.718048,464.911804 263.823486,447.944489 
	C261.609467,438.298737 261.442017,428.363342 266.097717,419.637207 
	C269.807556,412.683899 268.888062,406.371582 267.343628,399.587921 
	C266.827026,397.318848 266.082336,395.101532 265.570068,392.831635 
	C265.081116,390.665039 263.848633,389.547455 261.722198,388.770996 
	C242.254013,381.661957 232.710968,363.506561 238.680939,343.662781 
	C240.716415,336.896973 240.591309,331.662079 237.135040,325.121521 
	C226.642410,305.265533 234.086533,279.242340 253.375336,265.958344 
	C256.898285,263.532104 257.259460,261.792664 255.559937,257.988739 
	C248.053101,241.186722 252.997589,222.638870 267.863678,210.486603 
	C271.738434,207.319199 275.821472,204.427368 280.314636,202.175247 
	C282.404388,201.127808 283.642487,199.716034 283.701080,197.157532 
	C284.233459,173.918015 296.820526,157.945282 315.312378,145.855026 
	C327.080078,138.161163 339.910034,133.260681 354.312439,133.770920 
	C356.441162,133.846344 358.177307,133.305054 359.468170,131.415222 
	C370.036865,115.942764 385.311157,108.419556 403.327026,105.546318 
	C406.152161,105.095757 408.449280,104.392563 409.916290,101.193733 
	C419.739777,79.773415 441.165680,68.758347 464.848419,72.056915 
	C484.242188,74.758118 501.536163,81.508163 515.373169,95.831787 
	C515.931702,96.409943 516.697449,96.787918 517.378845,97.267776 
	C520.112244,96.073112 521.192078,93.448433 522.999268,91.570641 
	C538.495361,75.469063 571.917542,70.723053 590.184326,87.303101 
	C592.667053,89.556602 595.360352,90.091965 598.479309,89.522362 
	C618.866943,85.798965 635.491760,92.727493 649.170593,107.650459 
	C651.160461,109.821297 653.149475,110.694603 656.073486,110.679237 
	C685.737061,110.523293 708.588562,128.684113 715.327148,157.705536 
	C715.851440,159.963608 717.126160,161.573578 718.627502,163.157059 
	C728.715698,173.797058 736.920959,185.623215 741.398132,199.744995 
	C742.164856,202.163422 743.814270,203.147415 746.098999,203.593292 
	C751.547424,204.656555 756.514099,206.957626 761.453491,209.422577 
	C778.434753,217.896835 784.437195,237.556946 782.603333,253.857788 
	C782.325867,256.324158 782.581726,258.276764 783.980164,260.405853 
	C796.478333,279.433655 794.135864,300.011292 777.832886,315.530090 
	C774.343079,318.852051 772.994690,327.889252 775.398254,332.027588 
	C782.400269,344.083252 788.141479,356.476135 788.381104,370.880402 
	C788.541809,380.533173 786.383789,389.373810 781.300659,397.493561 
	C779.703186,400.045349 779.231445,402.486481 779.702209,405.509186 
	C782.110718,420.973694 771.498962,436.697296 756.212158,440.313538 
	C752.775818,441.126404 750.127502,442.445465 748.261597,445.587555 
	C746.121399,449.191650 743.190186,452.332123 739.826416,454.723572 
	C735.668762,457.679352 734.790222,461.594788 734.230347,466.249084 
	C732.752808,478.532196 728.652649,489.562958 717.650208,496.772369 
	C713.064941,499.776917 708.098083,501.634033 702.599670,501.275146 
	C698.323669,500.996063 695.317139,502.471985 692.883545,505.985352 
	C689.850769,510.363708 686.517639,514.551208 682.207397,517.803650 
	C680.110718,519.385803 679.935059,521.815918 679.445312,524.044189 
	C677.859070,531.260742 675.650757,538.203125 671.214722,544.243713 
	C666.790771,550.267700 661.097961,554.367981 653.543518,555.325867 
	C650.022827,555.772339 648.353333,557.392944 647.886963,561.005188 
	C647.185730,566.437256 645.968079,571.802734 644.947510,577.318054 
	C645.420898,579.195007 647.982910,578.312622 649.023865,580.423218 
	C645.882263,585.336487 640.710327,587.804871 635.316956,586.918213 
	C629.595886,585.977722 627.016785,588.300232 624.678650,592.542419 
	C623.987183,593.797058 623.470337,595.334473 621.881653,595.881470 
	C621.543396,595.794617 621.078613,595.818176 620.948792,595.621155 
	C616.736877,589.227478 616.806091,589.318054 610.236084,593.834351 
	C604.302124,597.913452 598.017761,601.325134 590.327759,602.435303 
M617.739746,401.751923 
	C621.436218,401.422882 622.703979,397.274384 626.450867,395.921326 
	C626.387329,401.583771 621.542847,403.135925 618.714539,406.532501 
	C620.583557,408.022797 622.172302,409.474335 623.939270,410.660339 
	C627.723450,413.200195 631.019775,412.062958 634.679260,408.038239 
	C637.939819,404.452301 636.578247,402.193390 633.663452,399.386993 
	C604.774719,371.573059 558.213013,383.546448 546.529236,421.970062 
	C545.086243,426.715607 541.843872,431.973633 547.425049,436.528900 
	C547.925720,436.937531 547.982300,438.105804 547.954468,438.911194 
	C547.785156,443.806793 549.461975,448.828369 546.642761,453.560364 
	C545.672180,455.189514 546.432373,457.141479 547.134888,458.867554 
	C548.960876,463.354279 551.115173,467.675903 554.080505,471.522552 
	C568.030823,489.618347 586.767944,494.683899 608.357971,490.628540 
	C627.907776,486.956421 639.831299,474.037109 646.471252,456.100067 
	C649.559143,447.758484 651.065430,438.853241 647.703979,429.086395 
	C641.005249,432.660278 634.412476,435.277069 630.498474,441.761566 
	C626.632080,448.167145 622.781250,454.582153 618.934448,460.999512 
	C615.319153,467.030640 609.438599,469.182800 602.967102,469.868286 
	C597.996399,470.394836 595.688171,466.619904 597.820496,462.018616 
	C598.374451,460.823120 599.755737,459.472626 599.503174,458.528931 
	C597.822449,452.249359 602.226562,451.780762 606.369934,450.793915 
	C615.116516,448.710663 621.790833,443.949524 625.595032,435.575806 
	C626.470825,433.647919 627.331055,431.680084 624.669006,430.562714 
	C620.836121,428.953857 617.553894,425.336212 612.801331,427.008270 
	C612.311768,427.180511 612.117615,428.440918 611.952576,429.231171 
	C611.680725,430.532501 611.566956,431.865875 611.348022,433.179321 
	C609.717712,442.960205 599.220825,451.492432 588.672546,451.620422 
	C578.625122,451.742371 570.810242,444.922821 568.589111,434.284821 
	C567.848511,430.737549 567.867737,427.115936 567.609253,422.866119 
	C563.262817,425.865234 562.602478,430.902710 559.184814,433.724945 
	C557.207886,431.987457 558.318359,430.335175 558.625671,428.852600 
	C563.183655,406.863220 585.266785,394.241760 606.738281,401.386261 
	C610.110657,402.508392 613.376526,403.670197 616.979980,402.021484 
	C616.979980,402.021484 617.066406,401.926025 617.739746,401.751923 
M395.218658,487.364044 
	C383.381653,478.384399 375.469940,466.842346 371.978516,452.293091 
	C370.557861,446.373077 370.635559,440.404633 370.655609,434.416687 
	C370.672913,429.252930 366.457336,429.139099 363.277496,428.865723 
	C359.280731,428.522125 360.269196,432.202148 360.421997,434.393860 
	C360.814606,440.025940 361.160187,445.725983 362.326721,451.228790 
	C369.155762,483.443817 375.340607,515.828613 396.849182,542.651123 
	C407.573547,556.025085 417.094238,570.422485 430.085754,581.789490 
	C449.164093,598.482117 470.959290,610.982910 493.922180,621.451294 
	C504.744690,626.385071 515.825806,627.186707 527.364441,622.876648 
	C550.836487,614.109131 571.937561,601.080383 592.158936,586.714722 
	C605.381165,577.321350 614.762756,563.788330 625.104980,551.432983 
	C632.798340,542.242188 640.163452,532.761230 644.367371,521.272705 
	C652.324036,499.528534 659.478821,477.548401 663.330200,454.657013 
	C664.540955,447.460663 665.127991,440.136292 665.584167,432.844482 
	C665.865784,428.342804 664.345581,427.706329 660.076294,429.319885 
	C655.786072,430.941345 655.268677,434.178650 655.327393,438.145477 
	C655.617859,457.760315 647.818298,473.594482 632.734070,486.007843 
	C599.924194,513.008240 549.366943,495.905945 539.521667,454.467316 
	C539.110291,452.735931 538.788635,451.015320 537.202026,449.659729 
	C532.507812,445.649109 532.274597,440.945221 536.251160,435.860046 
	C540.412903,430.537903 539.321960,425.269104 533.470825,422.014801 
	C520.205688,414.637024 506.887390,414.448975 493.421448,421.481781 
	C486.267670,425.217987 485.369781,429.981598 490.750977,436.429626 
	C493.918243,440.224762 493.981445,446.783020 490.292389,448.919617 
	C487.488373,450.543671 487.008240,452.852325 486.367065,455.391296 
	C484.384827,463.240143 481.126160,470.480865 476.047150,476.824768 
	C457.910614,499.478271 423.268005,507.468323 395.218658,487.364044 
M582.903259,687.269165 
	C580.143066,676.281494 578.541687,665.129211 577.460571,653.847290 
	C576.965210,648.678711 578.599365,642.306702 571.858337,639.185120 
	C570.911987,638.746887 570.824280,636.496826 570.297180,635.101257 
	C569.417847,632.772949 568.569458,630.429749 567.589966,628.143372 
	C566.237732,624.986755 563.861511,624.125061 560.393311,624.099731 
	C555.240540,624.062195 550.834534,625.946472 546.894714,628.619385 
	C531.266907,639.221924 513.945374,642.299500 495.540039,640.731384 
	C491.106781,640.353638 489.776764,642.076172 490.316132,646.175171 
	C491.124512,652.318787 490.012451,654.152405 484.189850,656.210022 
	C480.959717,657.351562 478.317230,659.037231 476.225708,661.887512 
	C473.422333,665.708008 470.026611,668.673340 464.777740,668.992676 
	C453.187622,669.697876 451.762146,670.975891 448.374390,681.965149 
	C446.564575,687.835754 445.269257,694.153320 441.490723,698.957458 
	C433.872406,708.643677 425.426453,717.666748 414.976044,724.483398 
	C411.846283,726.525024 411.627319,728.736206 413.993500,731.448975 
	C418.918182,737.095032 423.965363,742.641479 428.709290,748.435852 
	C433.010620,753.689636 438.109070,757.746765 444.134705,760.862549 
	C454.013367,765.970886 464.642578,768.521545 475.412659,770.750000 
	C485.190857,772.773315 495.092560,774.565247 503.142883,781.179626 
	C504.847900,782.580505 507.104767,783.833984 505.719025,787.963074 
	C493.352448,778.134949 479.010101,775.377075 464.115601,773.261536 
	C464.329132,776.172424 465.824005,777.583801 467.034271,779.118713 
	C475.994843,790.482971 486.208374,800.824219 494.489166,812.744873 
	C495.972046,814.879517 498.303528,815.255005 500.623260,815.627014 
	C514.074768,817.784424 527.528503,816.774109 540.981201,815.642517 
	C542.875671,815.483215 544.537354,814.789673 545.788025,813.299316 
	C555.426880,801.813538 566.613098,791.727173 575.940491,779.963257 
	C577.306641,778.240295 579.266052,776.709412 578.875122,773.776550 
	C563.625183,775.071289 549.119873,777.856140 536.133179,788.206726 
	C536.125977,783.330444 538.448730,781.815186 540.491882,780.254883 
	C545.754700,776.235718 551.807800,774.009949 558.254639,772.695435 
	C567.696411,770.770203 577.270874,769.475098 586.508789,766.576172 
	C593.928223,764.247864 600.893188,761.570435 604.390320,753.639526 
	C605.777344,750.494019 608.389893,747.911682 610.168274,744.909424 
	C611.875671,742.026855 614.130188,740.150513 617.334961,739.125977 
	C621.846680,737.683716 623.613159,733.890625 625.360535,730.069702 
	C622.607666,728.190063 618.696472,730.117432 617.760437,726.919678 
	C616.522522,722.690857 613.026917,721.169373 610.074219,718.836731 
	C599.194641,710.241760 588.417664,701.533997 582.903259,687.269165 
M418.805817,671.638367 
	C419.002747,672.442932 419.594727,673.415039 419.335510,674.026062 
	C416.721313,680.188171 420.876312,682.399841 425.299194,684.439087 
	C427.073700,685.257263 429.762177,685.688049 428.671112,688.313538 
	C427.802948,690.402588 425.280212,689.961609 423.281128,689.671936 
	C421.327576,689.388916 420.129669,687.951233 418.790619,686.692810 
	C417.134338,685.136353 416.086395,682.869507 413.132782,681.935974 
	C410.069122,688.662354 407.888306,695.666138 407.614624,702.941772 
	C407.384979,709.047241 412.999115,711.863342 418.478760,708.954590 
	C420.964447,707.635193 423.067871,705.405212 425.987091,705.149719 
	C429.859589,704.810852 432.304810,702.543030 434.602234,699.782166 
	C440.567047,692.614014 443.370392,684.150696 444.589539,675.111633 
	C445.364990,669.362000 443.043182,667.024658 437.514893,668.245850 
	C433.030884,669.236450 428.555298,668.777588 424.096619,669.203552 
	C421.450043,669.456360 420.160736,668.578491 419.809937,665.757263 
	C418.890259,658.361938 415.284637,654.769165 407.963348,652.728027 
	C403.687500,651.535889 400.350616,652.490173 397.844910,655.992554 
	C395.359619,659.466309 392.009430,661.825684 388.600830,664.263184 
	C382.855621,668.371643 376.173035,671.038574 371.900665,677.407288 
	C368.263702,682.828674 363.786865,688.183044 358.491333,691.846558 
	C353.818909,695.078979 349.846893,698.549072 346.844635,703.153259 
	C344.245483,707.139221 342.014984,711.158997 336.169983,710.236877 
	C334.651733,709.997314 333.480591,711.383240 332.333221,712.354736 
	C326.612946,717.197693 320.850525,721.991577 315.173096,726.884216 
	C309.131592,732.090820 309.179413,733.656677 315.280060,738.813293 
	C315.788757,739.243347 316.312805,739.657837 316.852814,740.047729 
	C337.840149,755.199890 360.276855,767.929688 383.261658,779.738770 
	C386.227295,781.262512 389.388702,781.466309 392.474854,780.244812 
	C395.577576,779.016602 398.121002,779.748413 400.934113,781.351196 
	C424.531616,794.796082 446.453522,810.975037 470.387451,823.870422 
	C472.157471,824.824158 474.331451,825.870728 474.020660,828.939392 
	C470.336334,829.231201 467.193878,827.568420 464.104156,826.222900 
	C435.822540,813.906982 408.722717,799.203064 381.255310,785.230774 
	C363.938538,776.422058 347.725861,765.344604 328.969818,759.426697 
	C327.267303,758.889526 324.660797,757.930603 324.382935,756.726929 
	C323.094177,751.143860 318.091248,749.542969 314.424683,746.585083 
	C308.171021,741.540222 302.254425,736.333313 298.152466,729.196350 
	C294.004333,721.979065 288.652588,722.472473 284.522552,729.852173 
	C279.884094,738.140320 276.588928,746.639893 278.035522,756.415405 
	C278.747437,761.226562 276.756714,765.083191 273.345184,768.492737 
	C268.845490,772.989807 262.835388,775.680176 259.493988,781.704712 
	C257.119751,785.985413 252.588730,788.858704 248.492310,791.746277 
	C245.100784,794.136963 244.477615,797.478577 245.566132,801.043091 
	C246.866058,805.299866 246.904678,810.232483 252.598389,812.138428 
	C259.488922,814.445007 266.752228,815.952515 272.793152,820.475098 
	C276.111816,822.959595 279.701599,823.018311 283.617767,821.241272 
	C291.050354,817.868408 298.734589,815.138733 306.695374,813.190247 
	C321.724915,809.511475 336.949310,807.756104 352.176758,810.907471 
	C369.761505,814.546814 387.176147,819.021912 404.630829,823.273071 
	C438.418823,831.502258 472.182526,839.831360 505.958893,848.108398 
	C507.865967,848.575745 510.046143,849.542847 511.357544,847.276489 
	C512.455872,845.378296 510.948547,843.810913 509.949615,842.304016 
	C509.398712,841.472839 508.745453,840.708435 508.124451,839.924988 
	C492.359375,820.036804 474.817352,801.777893 456.577759,784.191345 
	C431.263611,759.783386 406.620209,734.830994 388.209564,704.516541 
	C387.529388,703.396545 385.811310,702.405029 387.562347,700.481873 
	C391.846832,703.482178 393.798920,708.853210 398.722015,711.851196 
	C399.343079,694.373413 403.678528,678.340149 409.750092,662.380676 
	C414.783173,663.926819 416.526428,667.573608 418.805817,671.638367 
M593.489502,817.835022 
	C602.480225,812.421021 611.352783,806.798279 620.483337,801.631226 
	C650.057922,784.894775 679.745789,768.358582 709.345642,751.666565 
	C716.017822,747.903992 722.691772,744.069153 728.241577,738.668213 
	C732.574829,734.451111 732.546875,733.091492 728.277649,728.986633 
	C723.833191,724.713501 719.250366,720.580444 714.895203,716.219299 
	C706.326233,707.638672 696.734253,699.921997 690.986633,688.887939 
	C687.040100,681.311523 681.904907,674.549927 676.881042,667.698853 
	C669.447998,657.562500 658.574646,653.420044 646.997925,650.665405 
	C642.152161,649.512329 637.444458,650.881287 634.169495,654.557556 
	C631.423401,657.640137 628.173828,659.619019 624.735229,661.637390 
	C619.557129,664.676697 618.261169,668.151062 619.780884,673.846436 
	C621.626831,673.043030 622.317810,671.249451 623.448120,669.912720 
	C625.857422,667.063416 628.575562,664.641357 632.310852,663.731750 
	C635.083984,663.056458 637.046143,663.975952 637.175354,667.037170 
	C637.558228,676.108093 639.912598,684.793579 642.378723,693.427002 
	C643.862854,698.623169 643.567993,704.235107 645.798096,709.518738 
	C650.369080,707.672424 651.376953,702.557922 655.518066,700.719482 
	C656.131042,701.777283 656.145081,702.596497 655.662964,703.317627 
	C647.714661,715.205872 640.733276,727.912903 631.573364,738.783264 
	C612.014526,761.994446 589.397095,782.309448 567.138672,802.900024 
	C554.498535,814.592896 543.846191,828.077454 532.393066,840.840271 
	C531.254456,842.109131 529.566467,843.722107 530.887390,845.673401 
	C532.009460,847.330811 533.865784,846.593689 535.488525,846.220276 
	C580.550049,835.852051 625.601501,825.439026 670.684265,815.164001 
	C681.534180,812.691223 692.389221,809.561157 703.705383,811.004761 
	C714.283081,812.354187 724.649292,814.829529 734.858887,817.913208 
	C744.576782,820.848328 754.147156,824.345581 764.258179,825.788269 
	C778.253174,827.785034 792.289429,811.367371 787.985901,798.057129 
	C786.758545,794.260925 785.670471,790.390747 784.073853,786.749512 
	C781.657776,781.239380 781.221863,774.889648 775.187988,770.961243 
	C770.799988,768.104492 769.971252,767.391174 766.429260,771.787781 
	C764.758789,773.861206 763.192566,776.299072 760.348328,776.677612 
	C756.263611,777.221252 752.774841,778.888489 749.288757,780.972229 
	C746.288147,782.765625 742.799072,782.883484 739.808167,780.841980 
	C736.537842,778.609802 737.550171,775.248413 738.294006,772.162048 
	C738.601807,770.885071 738.972717,769.389404 739.841492,768.518494 
	C746.550537,761.792480 750.487671,752.792419 757.846008,746.629395 
	C760.606384,744.317444 762.365112,741.331909 761.709106,737.888428 
	C760.226013,730.102478 757.561157,722.807861 749.634033,719.104919 
	C746.474609,717.629089 743.598572,713.353088 739.924377,715.732788 
	C736.259888,718.106323 738.762695,722.406677 739.025513,725.925964 
	C739.494873,732.213257 740.343323,738.302979 734.107910,743.102905 
	C725.881226,749.435669 717.195618,754.992004 708.207520,760.045288 
	C670.591797,781.193542 631.890686,800.296692 593.736450,820.432129 
	C592.573486,821.045837 591.443970,822.491760 589.788696,821.291443 
	C590.089355,819.438110 591.838074,819.173706 593.489502,817.835022 
M535.871094,317.534637 
	C534.451599,317.797394 532.832825,317.568970 531.851746,319.179321 
	C532.032288,319.606415 532.117554,320.133820 532.418030,320.467407 
	C534.778870,323.088135 538.267151,323.931702 541.110779,325.507477 
	C540.930908,327.350067 539.660950,327.639160 538.654724,328.105560 
	C517.870972,337.738617 490.132935,329.797150 477.518127,310.623535 
	C473.825958,305.011719 472.139893,304.875397 468.799805,310.397583 
	C460.503021,324.114655 447.741180,331.305359 432.787048,335.261841 
	C424.806122,337.373413 417.266541,335.815399 410.231720,331.642578 
	C408.084381,330.368896 406.019928,328.956329 403.889404,327.653381 
	C398.628723,324.436249 397.411255,325.053192 397.158051,331.354950 
	C396.782135,340.710815 392.819183,347.922089 384.866211,352.951477 
	C381.487274,355.088257 378.183136,357.315399 374.424194,358.785492 
	C370.455994,360.337341 368.263977,363.285645 368.348022,367.609772 
	C368.534851,377.218658 365.693481,385.948792 361.046631,394.237549 
	C357.900421,399.849487 359.474945,405.924652 359.739807,411.837616 
	C359.792816,413.021423 360.840271,413.812561 361.864197,414.469391 
	C369.031677,419.067474 373.197479,417.963043 377.005798,410.424347 
	C377.231049,409.978394 377.469055,409.538879 377.699921,409.095764 
	C391.305786,382.981689 424.361664,371.108215 451.409790,382.669159 
	C465.445831,388.668488 475.888916,398.475830 482.519989,412.292786 
	C483.425415,414.179260 484.046814,416.375275 486.243378,417.333618 
	C486.796448,417.170105 487.295624,417.086121 487.736755,416.878754 
	C488.638916,416.454712 489.528595,415.996582 490.390961,415.496552 
	C505.183563,406.919403 520.015869,406.667969 534.965149,415.141479 
	C540.874268,418.490845 540.842651,418.365967 543.858154,412.145050 
	C554.589722,390.005951 576.038086,376.784454 599.793091,378.209442 
	C623.088867,379.606873 639.839722,391.600983 650.076050,412.340424 
	C652.378418,417.005188 654.651672,418.084473 659.076233,416.144806 
	C660.586670,415.482666 662.259399,415.195862 663.847473,414.703857 
	C665.603149,414.159943 666.547424,413.022583 666.823853,411.126068 
	C667.741028,404.833038 667.727905,398.510864 667.639038,392.180328 
	C667.621765,390.950104 667.232422,389.884003 666.263000,389.096863 
	C656.500122,381.170135 654.163086,369.965149 652.912659,358.385101 
	C651.872375,348.751617 648.949158,345.448944 639.430176,344.470398 
	C635.106262,344.025848 630.825989,343.742828 626.942810,341.437286 
	C620.500427,337.612335 613.773010,334.181885 609.392334,327.730347 
	C608.310730,326.137390 607.096802,325.556458 605.198792,326.627258 
	C595.861267,331.895325 585.753540,329.406281 575.901184,329.349243 
	C574.625122,329.341858 573.509888,328.541595 572.575317,327.400848 
	C569.005127,323.043030 563.395142,321.624603 559.353516,317.891846 
	C559.641602,319.726868 561.805908,320.539734 560.556946,322.931702 
	C557.292419,324.380951 553.844666,323.609894 550.776550,321.977631 
	C546.292847,319.592316 541.650635,318.053131 535.871094,317.534637 
M460.182404,394.306641 
	C438.908783,378.004578 408.690521,382.537628 392.494354,399.174133 
	C387.742401,404.055267 389.805237,407.343140 394.037689,410.551941 
	C398.140015,413.662079 402.317871,411.944916 406.187164,406.153595 
	C400.890411,400.277405 400.890411,400.277405 400.562714,397.704956 
	C413.237732,404.232880 413.237732,404.232880 422.039948,399.456268 
	C417.947449,397.637451 414.384277,402.379822 409.639130,400.938202 
	C424.638824,388.441559 462.703430,395.601135 467.127991,411.766602 
	C460.754517,407.326355 455.245148,402.501678 448.207642,400.158173 
	C441.258820,397.844208 434.315308,396.640289 427.020233,398.449432 
	C437.442230,397.663330 446.528198,400.998230 454.282104,407.588593 
	C462.022675,414.167633 467.580994,422.151093 468.045502,433.374725 
	C462.945343,431.769714 463.569153,425.580505 459.273651,424.042999 
	C457.762787,425.921936 458.393738,427.826141 458.333954,429.587341 
	C457.933289,441.386871 450.230255,450.747345 440.348541,451.348572 
	C426.961853,452.163116 416.253204,444.384979 415.017334,431.953217 
	C414.534851,427.099854 411.820679,423.541290 410.867493,419.163910 
	C408.248383,419.399078 407.432953,421.086212 407.121857,422.898468 
	C406.542419,426.274048 404.796326,428.808441 401.926941,430.461365 
	C399.200897,432.031647 399.384796,433.776123 400.716553,436.233429 
	C404.079681,442.439117 408.335785,447.512482 415.437378,449.581329 
	C417.507568,450.184448 419.491058,451.096191 421.493195,451.917877 
	C422.807831,452.457367 423.803314,453.322205 423.624298,454.916260 
	C423.476990,456.227814 422.493042,456.883636 421.415039,457.409058 
	C414.415833,460.820221 402.437164,455.841797 400.741272,448.289520 
	C399.610016,443.251648 396.933533,439.980408 392.799957,437.422089 
	C389.401733,435.318939 386.124146,433.016815 382.688354,430.979523 
	C378.863892,428.711792 377.592316,429.314026 377.242798,433.672150 
	C376.516327,442.730530 377.066589,451.620422 381.028015,460.049683 
	C390.637421,480.496887 406.787201,492.047638 429.227905,492.443359 
	C451.035095,492.827911 467.496338,482.564758 477.269867,462.618347 
	C479.162506,458.755707 480.440613,455.080109 478.706024,450.277008 
	C477.001526,445.557343 477.377563,439.799042 479.887817,435.321564 
	C481.563263,432.333038 481.833221,429.873596 481.168365,426.919952 
	C478.206024,413.759979 471.693726,402.842316 460.182404,394.306641 
M321.841278,432.455811 
	C316.081482,449.430786 319.468689,465.583557 326.885803,481.072815 
	C334.718048,497.428955 349.691498,507.185944 362.995819,518.405518 
	C364.754303,519.888428 366.859222,521.013672 368.927460,522.059998 
	C370.733856,522.973877 372.872864,523.534485 374.625488,522.183777 
	C376.535583,520.711670 375.882141,518.528259 375.230865,516.639160 
	C373.171356,510.665771 370.953308,504.746918 368.903259,498.770386 
	C367.732239,495.356598 366.175812,492.669769 362.503601,491.056732 
	C359.066650,489.547089 356.702148,486.857391 360.402924,482.900238 
	C361.991455,481.201721 361.489136,478.465027 360.296906,477.317444 
	C356.424866,473.590607 353.506836,469.492432 353.213379,462.748260 
	C348.637207,471.285553 348.637207,471.285553 343.271027,472.730225 
	C340.640533,467.174377 341.056122,461.871948 343.727417,456.283142 
	C346.840210,458.136169 345.084717,461.336884 347.138824,462.845703 
	C353.537506,461.051361 354.102631,460.157379 352.181366,454.348083 
	C351.610687,452.622437 351.145325,450.527924 349.902222,449.423737 
	C346.672791,446.555267 343.838135,443.624237 342.267212,439.437195 
	C341.556458,437.542755 339.445648,436.440063 337.242218,437.643494 
	C335.223206,438.746185 333.980255,440.497833 334.339752,442.972290 
	C334.523712,444.238434 336.115479,445.474457 335.119141,446.688599 
	C330.580200,452.219635 333.505829,458.089447 334.049377,463.877625 
	C334.218658,465.680389 335.263885,467.734711 332.181122,470.417511 
	C331.439423,463.009430 325.964203,458.026917 327.382568,450.679016 
	C328.141510,446.747284 330.128082,442.020020 323.873169,440.449249 
	C328.249268,430.311981 332.605194,429.250122 346.284760,434.776581 
	C347.438110,431.052795 345.919586,428.326385 343.222717,426.039642 
	C336.345978,420.208832 327.583313,422.601654 321.841278,432.455811 
M661.993652,492.563568 
	C659.870911,493.160461 658.631104,494.675446 657.956665,496.655487 
	C655.328491,504.371368 652.722839,512.095215 650.175476,519.838013 
	C649.828857,520.891541 649.440125,522.112732 650.988892,523.609802 
	C657.408997,523.918152 662.484802,520.044006 667.207336,515.988586 
	C673.894714,510.245789 679.945007,503.753998 686.700439,498.099365 
	C694.932617,491.208557 700.021973,482.454132 703.437622,472.552399 
	C705.797485,465.711151 703.979675,461.201843 697.563599,457.167847 
	C695.370850,460.805908 696.912537,466.166138 692.359070,469.059296 
	C691.995605,468.314606 691.580322,467.875946 691.623352,467.488129 
	C692.062744,463.528320 692.550659,459.573303 693.076721,455.623840 
	C693.697998,450.960052 690.018738,445.791107 685.368835,445.435638 
	C682.475159,445.214417 679.615906,445.901031 679.109985,449.632111 
	C678.934509,450.926453 679.108521,452.929535 677.570801,452.914001 
	C674.398682,452.882019 674.549805,455.507233 673.463440,457.151794 
	C670.772156,461.225800 671.919800,465.762421 671.821472,470.185760 
	C671.695801,475.835999 667.358948,480.150909 666.525696,485.593536 
	C666.096008,488.399933 665.063721,490.676117 661.993652,492.563568 
M495.863525,98.582687 
	C500.921967,100.346230 505.411560,103.765503 512.289612,104.282936 
	C499.502686,87.881088 482.818787,81.721458 464.206940,79.488243 
	C446.555664,77.370285 431.435089,81.960030 419.644653,97.787865 
	C438.063080,83.693703 456.928955,79.782845 477.491241,89.110420 
	C483.529999,91.849777 489.279419,95.226952 495.863525,98.582687 
M663.191772,116.495087 
	C661.447632,116.565041 659.594177,115.775978 657.822327,117.195259 
	C659.651611,121.095985 661.749573,124.857170 663.181824,128.856781 
	C664.263367,131.877182 665.894470,133.468552 669.031006,134.091782 
	C677.939941,135.862045 685.942810,139.866470 693.679321,144.486588 
	C695.127014,145.351089 696.464783,146.716202 699.367065,146.604034 
	C691.982056,130.560852 680.993347,120.103218 663.191772,116.495087 
M511.149017,833.384338 
	C512.433472,835.322388 513.559021,837.392944 515.038452,839.168518 
	C517.458984,842.073486 521.241699,843.273132 523.894165,840.948547 
	C529.408325,836.116150 533.928772,830.226135 538.805725,823.737671 
	C526.618103,823.737671 515.396545,823.737671 504.011108,823.737671 
	C504.925201,828.269531 508.833496,829.748840 511.149017,833.384338 
M616.689514,693.991638 
	C617.633423,699.693909 620.077087,704.705566 624.282288,708.624573 
	C626.296936,710.502075 627.990723,712.229065 628.400391,715.095642 
	C628.629211,716.696655 629.344482,718.558777 631.427673,718.463379 
	C633.184082,718.382996 633.558411,716.638611 634.140076,715.262756 
	C637.296753,707.796631 634.416809,692.001709 628.850220,686.204895 
	C627.333923,684.625854 625.850708,685.208740 624.399475,686.186340 
	C621.502136,688.138000 618.796875,690.308105 616.689514,693.991638 
M313.333527,171.704788 
	C324.811523,161.456345 336.442474,151.387375 349.101837,141.829346 
	C329.083862,139.972229 310.976837,158.729752 309.150421,175.000702 
	C310.505554,173.946823 311.666168,173.044235 313.333527,171.704788 
M751.796448,223.672577 
	C752.575684,225.505859 753.359436,227.337250 754.133179,229.172836 
	C755.282349,231.898621 755.102539,235.548752 757.613159,237.264816 
	C764.285278,241.825470 770.680237,246.732742 777.252441,252.394760 
	C778.085205,247.907516 777.961792,244.267151 776.507141,240.600342 
	C772.166077,229.658249 762.213196,225.947281 752.558350,221.851883 
	C751.292725,221.315018 751.190186,222.179001 751.796448,223.672577 
M693.514038,423.067291 
	C685.718994,421.724884 679.519287,426.529999 679.869263,433.720306 
	C682.105408,434.343018 683.534485,432.577850 685.282837,431.825867 
	C689.480225,430.020508 693.531616,430.031464 696.840576,433.408813 
	C700.017761,436.651642 704.299622,438.992645 701.751770,445.502686 
	C700.228210,449.395599 702.412231,454.570831 705.677551,459.800537 
	C707.473450,451.825165 706.926575,445.297729 705.784119,438.742523 
	C704.541443,431.611847 701.713318,425.720215 693.514038,423.067291 
M247.217102,369.222626 
	C249.261948,372.498230 251.717773,375.408234 254.813660,377.746399 
	C255.783188,378.478577 256.842651,379.070923 257.994202,378.253937 
	C258.927612,377.591705 258.890045,376.468719 258.680969,375.507141 
	C258.046417,372.588593 257.597870,369.580566 256.540192,366.812408 
	C253.515640,358.896729 250.226044,351.082336 246.810806,342.661285 
	C241.867188,350.845673 242.083130,360.564331 247.217102,369.222626 
M278.960510,457.575165 
	C283.202179,460.529236 287.608459,463.024475 293.148834,462.940674 
	C292.915314,458.917084 290.877472,456.773438 287.614349,455.157654 
	C277.929840,450.362152 272.805237,441.911804 269.801392,431.841400 
	C268.269196,441.850647 271.429077,450.141663 278.960510,457.575165 
M302.807587,167.489288 
	C302.980499,166.879440 303.153381,166.269592 303.326294,165.659744 
	C294.882080,174.493851 289.336365,184.587250 288.423767,197.619873 
	C293.104889,195.698364 298.091431,195.551712 298.600067,189.583191 
	C299.221619,182.289886 300.741089,175.163620 302.807587,167.489288 
M564.908264,90.097145 
	C571.446472,88.240868 577.996094,89.377579 585.004456,90.375237 
	C571.166016,79.761215 550.649536,84.561348 542.245850,100.237137 
	C549.394348,96.080475 556.280334,92.136093 564.908264,90.097145 
M307.811890,726.309509 
	C311.327240,723.004395 314.867188,719.724792 318.341461,716.377075 
	C319.266541,715.485657 320.440369,714.499207 319.601074,712.956238 
	C318.942383,711.745300 317.948334,710.926270 316.470703,710.760742 
	C311.812256,710.239014 303.433197,714.573425 301.108826,718.694214 
	C299.751678,721.100220 300.481598,723.208130 301.972565,725.165833 
	C303.318939,726.933777 304.762634,728.734741 307.811890,726.309509 
M773.288147,382.723602 
	C773.339355,385.615509 774.461853,388.029602 776.671509,390.715240 
	C785.116211,377.372040 783.442566,364.166443 778.857666,350.811310 
	C779.167725,354.028748 779.854614,357.235565 780.286011,360.476318 
	C781.379456,368.691040 776.706116,375.121887 773.288147,382.723602 
M720.982910,483.454407 
	C724.533325,479.065857 727.268921,474.363800 727.090881,466.924042 
	C719.518372,475.760681 712.820129,483.577087 706.121887,491.393524 
	C706.471619,491.826630 706.821411,492.259735 707.171143,492.692871 
	C712.781128,491.818451 716.753296,488.089630 720.982910,483.454407 
M540.028503,88.163864 
	C534.029663,90.325081 529.724548,94.674545 525.480164,99.185905 
	C523.446411,101.347618 523.418640,103.115936 525.466736,105.120773 
	C527.061462,106.681801 527.821594,109.140366 531.031494,109.963058 
	C531.966553,100.883362 536.270691,93.566521 542.396301,87.155426 
	C541.786255,87.402924 541.176147,87.650421 540.028503,88.163864 
M389.706299,331.468201 
	C389.696320,331.303894 389.695404,331.138458 389.674988,330.975464 
	C389.289886,327.901825 387.154572,327.900269 384.899170,328.368744 
	C379.517731,329.486603 381.581421,333.977875 381.078186,337.222015 
	C380.844971,338.725586 380.440002,340.720612 382.568878,341.412170 
	C383.827484,341.820953 384.736786,340.791077 385.466705,339.911804 
	C387.360321,337.630676 389.236176,335.318390 389.706299,331.468201 
M777.928101,268.983124 
	C783.915955,278.481750 784.171814,288.685730 781.382690,299.264404 
	C787.586182,287.736816 785.749329,270.781830 778.060425,266.113770 
	C777.321655,266.761597 777.416138,267.567749 777.928101,268.983124 
M419.998444,420.408417 
	C418.665649,423.255493 420.074768,425.164734 422.314087,426.593658 
	C424.243439,427.824768 426.145050,427.332489 427.636047,425.700195 
	C429.428467,423.737946 430.532745,421.519348 428.299683,419.194183 
	C425.490448,416.269073 422.804657,416.936768 419.998444,420.408417 
M583.145935,419.461395 
	C581.368042,417.029938 579.125061,416.552368 576.682129,418.259857 
	C574.776184,419.591980 573.790161,421.481995 574.765076,423.886169 
	C575.606689,425.961670 577.128540,427.106689 579.426208,426.789062 
	C582.387573,426.379669 583.679810,424.485474 583.678162,421.604797 
	C583.677856,421.113312 583.539062,420.621857 583.145935,419.461395 
M644.851562,114.987564 
	C645.353149,115.400520 645.854736,115.813469 646.356384,116.226425 
	C637.194885,105.883156 626.715332,97.741898 612.447998,96.050850 
	C624.003052,100.664978 634.965698,106.306458 644.851562,114.987564 
M260.644623,235.452576 
	C261.723206,228.123810 265.675842,222.334198 270.684784,217.110291 
	C260.351288,224.719147 255.854126,236.291946 259.250916,246.168900 
	C259.677673,242.825607 260.094330,239.561493 260.644623,235.452576 
M642.188477,423.275696 
	C643.611328,423.873108 645.596252,425.595154 646.421875,423.525940 
	C647.827698,420.002350 645.805847,417.016144 643.575134,414.221863 
	C639.713867,418.850586 639.713867,418.850586 642.188477,423.275696 
M380.699341,417.670868 
	C379.708893,419.843750 378.561890,421.992523 379.347839,424.489410 
	C381.787445,424.876190 383.401215,423.692200 385.049286,422.659637 
	C386.969727,421.456451 386.588165,419.902283 385.397980,418.518311 
	C384.296692,417.237732 383.507477,414.377594 380.699341,417.670868 
M772.003784,399.219757 
	C771.859985,399.152710 771.676697,398.998322 771.582581,399.040924 
	C771.466187,399.093567 771.360962,399.308807 771.358643,399.455505 
	C771.280823,404.322937 769.328369,409.060883 769.674438,414.424805 
	C772.496338,413.216400 773.399414,411.289703 773.368652,409.396912 
	C773.315857,406.152649 772.662354,402.918091 772.003784,399.219757 
M389.938599,416.359467 
	C390.864502,416.667725 391.795868,417.158539 392.692688,416.291351 
	C390.048706,410.574432 388.298462,409.250580 384.654694,410.535858 
	C385.832733,412.765015 387.365051,414.584381 389.938599,416.359467 
M722.842407,181.140625 
	C726.169800,186.583466 729.497192,192.026321 732.824585,197.469177 
	C730.333069,190.500519 726.554504,184.336197 721.633362,178.870514 
	C721.929504,179.453827 722.225647,180.037155 722.842407,181.140625 
M246.448715,293.059021 
	C247.627991,290.878357 248.807281,288.697662 250.535461,285.502014 
	C245.398773,290.002289 242.419861,294.277985 242.318787,300.687805 
	C244.567734,298.425873 244.829880,295.794983 246.448715,293.059021 
M616.051208,418.287628 
	C614.117310,417.584137 613.103394,415.166016 610.409607,415.283600 
	C609.921204,418.605164 611.902649,420.382172 614.376953,421.301910 
	C616.360107,422.039124 618.255371,421.565491 616.051208,418.287628 
M636.714966,411.170105 
	C636.229126,412.446014 634.697510,413.554901 636.274841,415.433044 
	C639.094727,413.632446 641.498352,411.836823 640.015198,407.882446 
	C637.878296,407.977997 637.874878,409.671295 636.714966,411.170105 
M436.500427,316.361145 
	C435.655273,317.394135 435.940582,318.465088 437.143097,318.419098 
	C439.441467,318.331177 441.252441,317.197052 442.104828,314.777985 
	C439.806732,313.682648 438.468323,315.104370 436.500427,316.361145 
z"/>
<path fill="#000000" opacity="1.000000" stroke="none" 
	d="
M535.758911,542.247192 
	C541.397949,545.942078 551.653137,544.611694 557.699219,539.221008 
	C559.867188,537.288147 561.584290,536.433533 563.420837,538.978699 
	C565.360352,541.666504 562.912109,542.924377 561.120605,543.973022 
	C556.036682,546.948730 550.541870,548.827698 544.649231,549.384827 
	C540.840210,549.744995 537.805359,550.868103 535.803894,554.679688 
	C533.783020,558.528381 530.379822,561.208740 525.738586,562.468933 
	C524.826050,559.119263 528.489197,557.708923 528.163879,554.668335 
	C526.003662,552.565125 522.892700,552.108643 520.055420,552.240601 
	C511.749512,552.627136 503.400055,550.917664 495.132568,552.777588 
	C494.336243,552.956665 493.293976,553.180481 492.674072,552.833313 
	C485.009094,548.540161 475.802948,549.305847 468.078003,545.272705 
	C467.046234,544.734009 465.986115,544.223022 465.036102,543.560181 
	C463.347870,542.382324 461.492676,540.981995 463.266693,538.741089 
	C464.802887,536.800537 466.429626,537.322266 468.352814,538.907532 
	C473.145111,542.857727 479.087036,543.920593 485.060272,544.661865 
	C486.413605,544.829834 487.706573,544.505859 488.812805,543.614502 
	C493.291351,540.005920 497.687439,538.512451 502.201691,543.692200 
	C505.119019,547.039612 509.229156,546.330872 512.606201,545.284851 
	C518.122742,543.576233 524.257812,544.376038 529.333923,540.777649 
	C531.284973,539.394531 533.430542,541.344910 535.758911,542.247192 
z"/>
<path fill="#000000" opacity="1.000000" stroke="none" 
	d="
M530.844849,507.948303 
	C526.501221,510.008392 522.332703,511.392242 517.615479,511.689240 
	C516.449707,508.100403 517.932373,505.755646 520.714600,504.155273 
	C523.615112,502.486847 526.745544,501.118073 530.048218,503.101044 
	C531.799988,504.152893 532.548706,505.736755 530.844849,507.948303 
z"/>
<path fill="#000000" opacity="1.000000" stroke="none" 
	d="
M498.553467,502.421051 
	C506.650940,502.954926 509.447449,505.357941 509.182861,511.530182 
	C504.607117,511.770020 500.500153,509.946960 496.536163,508.180237 
	C493.387299,506.776794 494.073303,504.638824 498.553467,502.421051 
z"/>
<path fill="#000000" opacity="1.000000" stroke="none" 
	d="
M395.024261,371.091370 
	C388.421600,373.665802 382.200317,376.122742 375.924652,378.601166 
	C374.867340,375.764832 376.506897,374.744934 377.582947,373.690796 
	C394.889862,356.735931 415.002960,346.128113 439.880035,346.762299 
	C447.220856,346.949432 454.393707,348.545990 461.383606,350.801422 
	C464.807190,351.906097 466.960602,354.139893 467.466034,357.933105 
	C468.120087,362.841705 469.049683,367.713623 469.789948,372.175323 
	C461.099792,374.076080 453.660156,369.597107 445.651855,368.215790 
	C437.258820,366.768127 428.856110,365.849854 420.346039,366.336151 
	C411.843658,366.822052 403.559875,368.571106 395.024261,371.091370 
z"/>
<path fill="#000000" opacity="1.000000" stroke="none" 
	d="
M563.412231,372.464417 
	C558.823914,372.902130 556.481934,370.495605 557.150879,366.402832 
	C557.177490,366.240112 557.273376,366.087128 557.290649,365.924652 
	C558.493652,354.595703 556.182495,352.116119 574.188782,348.325653 
	C599.077454,343.086426 620.368774,351.202911 639.798401,366.087158 
	C642.566956,368.208038 645.178345,370.552551 647.715698,372.948914 
	C648.964844,374.128662 650.724121,375.238861 650.070312,377.532440 
	C647.990356,379.136444 646.308838,377.615570 644.588013,376.797791 
	C620.147827,365.183502 595.046265,362.467682 569.073730,371.088928 
	C567.341980,371.663788 565.529297,371.994812 563.412231,372.464417 
z"/>
<path fill="#000000" opacity="1.000000" stroke="none" 
	d="
M616.936951,402.069397 
	C611.085571,402.238129 606.455078,398.344879 600.687866,397.712006 
	C586.463074,396.151001 574.094666,399.842926 563.068787,408.695160 
	C562.167419,409.418884 561.245422,410.121918 560.285400,410.763397 
	C560.101135,410.886505 559.693909,410.675903 559.323792,410.607056 
	C558.454834,408.713348 560.112610,407.951477 561.066650,406.986847 
	C573.936157,393.975098 597.726501,390.263580 613.935120,398.675232 
	C615.146484,399.303925 616.264404,399.954681 616.935425,401.604889 
	C617.066406,401.926025 616.979980,402.021484 616.936951,402.069397 
z"/>
<path fill="#000000" opacity="1.000000" stroke="none" 
	d="
M352.758728,500.262787 
	C354.336090,502.259979 356.891296,503.203705 356.694427,506.010559 
	C349.353333,506.108551 334.109497,486.980988 334.378113,476.710388 
	C338.856567,480.408752 340.595337,485.049622 343.426331,488.788208 
	C346.329712,492.622284 349.472839,496.274811 352.758728,500.262787 
z"/>
<path fill="#000000" opacity="1.000000" stroke="none" 
	d="
M680.750183,498.714233 
	C677.318970,501.804626 675.011108,505.963226 669.478638,505.695160 
	C677.233765,496.744720 684.167114,487.257568 690.640381,476.350616 
	C692.532471,481.752411 689.267639,488.388885 680.750183,498.714233 
z"/>
<path fill="#000000" opacity="1.000000" stroke="none" 
	d="
M684.045532,465.959167 
	C683.904724,469.008423 684.562500,471.713226 682.607971,474.850800 
	C681.019958,468.245483 680.773926,462.273895 681.188538,455.062775 
	C685.003540,458.678070 683.837646,462.264954 684.045532,465.959167 
z"/>
</svg>